<svg xmlns="http://www.w3.org/2000/svg" xmlns:xlink="http://www.w3.org/1999/xlink" width="1000" zoomAndPan="magnify" viewBox="0 0 750 749.999995" height="1000" preserveAspectRatio="xMidYMid meet" version="1.0"><defs><clipPath id="be98f5b333"><path d="M 374 227 L 717.769531 227 L 717.769531 614 L 374 614 Z M 374 227 " clip-rule="nonzero"/></clipPath><clipPath id="68e1d88c9a"><path d="M 32.269531 130.105469 L 511 130.105469 L 511 519 L 32.269531 519 Z M 32.269531 130.105469 " clip-rule="nonzero"/></clipPath></defs><g clip-path="url(#be98f5b333)"><path fill="#6366f1" d="M 374.410156 398.847656 C 374.410156 304.113281 451.183594 227.316406 545.941406 227.316406 C 640.675781 227.316406 717.445312 304.113281 717.445312 398.847656 C 717.445312 478.734375 662.84375 545.835938 588.949219 564.941406 C 598.945312 583.089844 613.308594 603.101562 631.695312 613.121094 C 631.695312 613.121094 541.996094 619.941406 494.539062 562.542969 C 424.90625 540.691406 374.410156 475.671875 374.410156 398.847656 " fill-opacity="1" fill-rule="nonzero"/></g><path fill="#ffffff" d="M 631.347656 352.371094 L 450.488281 352.371094 C 443.90625 352.371094 438.550781 347.042969 438.550781 340.460938 C 438.550781 333.878906 443.90625 328.550781 450.488281 328.550781 L 631.347656 328.550781 C 637.929688 328.550781 643.257812 333.878906 643.257812 340.460938 C 643.257812 347.042969 637.929688 352.371094 631.347656 352.371094 " fill-opacity="1" fill-rule="nonzero"/><path fill="#ffffff" d="M 631.347656 409.320312 L 450.488281 409.320312 C 443.90625 409.320312 438.550781 403.988281 438.550781 397.40625 C 438.550781 390.824219 443.90625 385.496094 450.488281 385.496094 L 631.347656 385.496094 C 637.929688 385.496094 643.257812 390.824219 643.257812 397.40625 C 643.257812 403.988281 637.929688 409.320312 631.347656 409.320312 " fill-opacity="1" fill-rule="nonzero"/><path fill="#ffffff" d="M 631.347656 466.265625 L 450.488281 466.265625 C 443.90625 466.265625 438.550781 460.910156 438.550781 454.328125 C 438.550781 447.769531 443.90625 442.441406 450.488281 442.441406 L 631.347656 442.441406 C 637.929688 442.441406 643.257812 447.769531 643.257812 454.328125 C 643.257812 460.910156 637.929688 466.265625 631.347656 466.265625 " fill-opacity="1" fill-rule="nonzero"/><g clip-path="url(#68e1d88c9a)"><path fill="#f43f5e" d="M 372.386719 169.730469 C 364.738281 169.730469 357.25 170.34375 349.949219 171.542969 C 330.414062 146.414062 299.902344 130.238281 265.609375 130.238281 C 220.464844 130.238281 181.878906 158.21875 166.238281 197.761719 C 157.632812 195.550781 148.597656 194.351562 139.324219 194.351562 C 80.324219 194.351562 32.527344 242.15625 32.527344 301.128906 C 32.527344 360.101562 80.324219 407.933594 139.324219 407.933594 C 141.640625 407.933594 143.933594 407.828125 146.226562 407.691406 C 166.34375 436.472656 199.707031 455.3125 237.46875 455.3125 C 250.523438 455.3125 263.050781 453.046875 274.695312 448.917969 C 273.921875 466.132812 269.816406 505.171875 248.527344 518.867188 C 248.527344 518.867188 330.46875 514.46875 360.765625 445.933594 C 364.605469 446.253906 368.46875 446.4375 372.386719 446.4375 C 448.785156 446.4375 510.738281 384.484375 510.738281 308.082031 C 510.738281 231.660156 448.785156 169.730469 372.386719 169.730469 " fill-opacity="1" fill-rule="nonzero"/></g><path fill="#ffffff" d="M 207.78125 306.832031 C 207.78125 320.714844 196.511719 331.988281 182.601562 331.988281 C 168.714844 331.988281 157.445312 320.714844 157.445312 306.832031 C 157.445312 292.921875 168.714844 281.648438 182.601562 281.648438 C 196.511719 281.648438 207.78125 292.921875 207.78125 306.832031 " fill-opacity="1" fill-rule="nonzero"/><path fill="#ffffff" d="M 296.785156 306.832031 C 296.785156 320.714844 285.511719 331.988281 271.628906 331.988281 C 257.746094 331.988281 246.472656 320.714844 246.472656 306.832031 C 246.472656 292.921875 257.746094 281.648438 271.628906 281.648438 C 285.511719 281.648438 296.785156 292.921875 296.785156 306.832031 " fill-opacity="1" fill-rule="nonzero"/><path fill="#ffffff" d="M 385.816406 306.832031 C 385.816406 320.714844 374.542969 331.988281 360.660156 331.988281 C 346.75 331.988281 335.476562 320.714844 335.476562 306.832031 C 335.476562 292.921875 346.75 281.648438 360.660156 281.648438 C 374.542969 281.648438 385.816406 292.921875 385.816406 306.832031 " fill-opacity="1" fill-rule="nonzero"/></svg>