<svg xmlns="http://www.w3.org/2000/svg" xmlns:xlink="http://www.w3.org/1999/xlink" width="1000" zoomAndPan="magnify" viewBox="0 0 750 749.999995" height="1000" preserveAspectRatio="xMidYMid meet" version="1.0"><defs><clipPath id="fe52f2e651"><path d="M 47.273438 177 L 702.773438 177 L 702.773438 572 L 47.273438 572 Z M 47.273438 177 " clip-rule="nonzero"/></clipPath><clipPath id="e56883dba6"><path d="M 47.273438 177 L 702.773438 177 L 702.773438 573 L 47.273438 573 Z M 47.273438 177 " clip-rule="nonzero"/></clipPath><clipPath id="6475fdfde3"><path d="M 47.273438 204 L 702.773438 204 L 702.773438 333 L 47.273438 333 Z M 47.273438 204 " clip-rule="nonzero"/></clipPath><clipPath id="84c977b397"><path d="M 54 204 L 702.773438 204 L 702.773438 333 L 54 333 Z M 54 204 " clip-rule="nonzero"/></clipPath><clipPath id="5fca5b0439"><path d="M 47.273438 548 L 702.773438 548 L 702.773438 572 L 47.273438 572 Z M 47.273438 548 " clip-rule="nonzero"/></clipPath><clipPath id="9886dd95f2"><path d="M 643 548 L 702.773438 548 L 702.773438 572 L 643 572 Z M 643 548 " clip-rule="nonzero"/></clipPath></defs><g clip-path="url(#fe52f2e651)"><path fill="#12db55" d="M 702.773438 548.945312 C 702.773438 561.632812 693.257812 571.144531 680.574219 571.144531 L 69.476562 571.144531 C 56.789062 571.144531 47.273438 561.632812 47.273438 548.945312 L 47.273438 200.046875 C 47.273438 187.363281 56.789062 177.847656 69.476562 177.847656 L 680.574219 177.847656 C 693.257812 177.847656 702.773438 187.363281 702.773438 200.046875 Z M 702.773438 548.945312 " fill-opacity="1" fill-rule="nonzero"/><path fill="#12db55" d="M 702.773438 548.945312 C 702.773438 561.632812 693.257812 571.144531 680.574219 571.144531 L 69.476562 571.144531 C 56.789062 571.144531 47.273438 561.632812 47.273438 548.945312 L 47.273438 200.046875 C 47.273438 187.363281 56.789062 177.847656 69.476562 177.847656 L 680.574219 177.847656 C 693.257812 177.847656 702.773438 187.363281 702.773438 200.046875 Z M 702.773438 548.945312 " fill-opacity="1" fill-rule="nonzero"/></g><g clip-path="url(#e56883dba6)"><path fill="#0ac945" d="M 47.273438 200.046875 C 47.273438 187.363281 56.789062 177.847656 69.476562 177.847656 L 680.574219 177.847656 C 693.257812 177.847656 702.773438 187.363281 702.773438 200.046875 L 702.773438 550 C 702.773438 562.6875 693.257812 572.203125 680.574219 572.203125 " fill-opacity="1" fill-rule="nonzero"/></g><g clip-path="url(#6475fdfde3)"><path fill="#334449" d="M 47.273438 204.277344 L 702.773438 204.277344 L 702.773438 332.207031 L 47.273438 332.207031 Z M 47.273438 204.277344 " fill-opacity="1" fill-rule="nonzero"/></g><g clip-path="url(#84c977b397)"><path fill="#000000" d="M 272.472656 332.207031 L 702.773438 332.207031 L 702.773438 204.277344 L 54.675781 204.277344 Z M 272.472656 332.207031 " fill-opacity="1" fill-rule="nonzero"/></g><g clip-path="url(#5fca5b0439)"><path fill="#0cc69a" d="M 702.773438 548.945312 C 702.773438 561.632812 693.257812 571.144531 680.574219 571.144531 L 69.476562 571.144531 C 56.789062 571.144531 47.273438 561.632812 47.273438 548.945312 " fill-opacity="1" fill-rule="nonzero"/></g><g clip-path="url(#9886dd95f2)"><path fill="#0baf84" d="M 680.574219 571.144531 C 693.257812 571.144531 702.773438 561.632812 702.773438 548.945312 L 643.570312 548.945312 Z M 680.574219 571.144531 " fill-opacity="1" fill-rule="nonzero"/></g><path fill="#d4f9ed" d="M 281.984375 396.699219 C 281.984375 400.925781 278.8125 404.097656 274.585938 404.097656 L 117.054688 404.097656 C 112.824219 404.097656 109.652344 400.925781 109.652344 396.699219 C 109.652344 392.46875 112.824219 389.296875 117.054688 389.296875 L 274.585938 389.296875 C 278.8125 389.296875 281.984375 392.46875 281.984375 396.699219 Z M 281.984375 396.699219 " fill-opacity="1" fill-rule="nonzero"/><path fill="#d4f9ed" d="M 281.984375 434.761719 C 281.984375 438.988281 278.8125 442.160156 274.585938 442.160156 L 117.054688 442.160156 C 112.824219 442.160156 109.652344 438.988281 109.652344 434.761719 C 110.710938 430.53125 113.882812 427.359375 117.054688 427.359375 L 274.585938 427.359375 C 278.8125 427.359375 281.984375 430.53125 281.984375 434.761719 Z M 281.984375 434.761719 " fill-opacity="1" fill-rule="nonzero"/><path fill="#d4f9ed" d="M 251.324219 472.820312 C 251.324219 477.050781 248.152344 480.222656 243.925781 480.222656 L 117.054688 480.222656 C 113.882812 480.222656 110.710938 477.050781 110.710938 472.820312 C 110.710938 468.59375 113.882812 465.421875 118.109375 465.421875 L 244.980469 465.421875 C 248.152344 466.476562 251.324219 469.648438 251.324219 472.820312 Z M 251.324219 472.820312 " fill-opacity="1" fill-rule="nonzero"/><path fill="#ffbc00" d="M 602.335938 444.273438 C 602.335938 445.574219 602.304688 446.871094 602.238281 448.167969 C 602.175781 449.460938 602.082031 450.757812 601.953125 452.046875 C 601.828125 453.339844 601.667969 454.625 601.476562 455.910156 C 601.285156 457.195312 601.066406 458.472656 600.8125 459.746094 C 600.558594 461.019531 600.273438 462.285156 599.957031 463.542969 C 599.644531 464.800781 599.296875 466.050781 598.921875 467.292969 C 598.542969 468.535156 598.136719 469.765625 597.699219 470.988281 C 597.261719 472.210938 596.796875 473.421875 596.300781 474.621094 C 595.804688 475.820312 595.277344 477.003906 594.722656 478.179688 C 594.167969 479.351562 593.585938 480.511719 592.972656 481.65625 C 592.359375 482.796875 591.722656 483.925781 591.054688 485.039062 C 590.386719 486.152344 589.691406 487.25 588.972656 488.328125 C 588.25 489.40625 587.503906 490.46875 586.730469 491.511719 C 585.957031 492.554688 585.160156 493.574219 584.335938 494.578125 C 583.511719 495.582031 582.664062 496.566406 581.792969 497.527344 C 580.921875 498.488281 580.027344 499.425781 579.109375 500.34375 C 578.191406 501.261719 577.253906 502.15625 576.292969 503.027344 C 575.332031 503.898438 574.347656 504.746094 573.34375 505.570312 C 572.339844 506.394531 571.320312 507.191406 570.277344 507.964844 C 569.234375 508.738281 568.171875 509.484375 567.09375 510.207031 C 566.015625 510.925781 564.917969 511.621094 563.804688 512.289062 C 562.691406 512.957031 561.566406 513.59375 560.421875 514.207031 C 559.277344 514.816406 558.117188 515.402344 556.945312 515.957031 C 555.769531 516.511719 554.585938 517.035156 553.386719 517.535156 C 552.1875 518.03125 550.976562 518.496094 549.753906 518.933594 C 548.53125 519.371094 547.300781 519.777344 546.058594 520.15625 C 544.816406 520.53125 543.566406 520.878906 542.308594 521.191406 C 541.050781 521.507812 539.785156 521.792969 538.511719 522.046875 C 537.238281 522.300781 535.960938 522.519531 534.675781 522.710938 C 533.390625 522.902344 532.105469 523.0625 530.8125 523.1875 C 529.523438 523.316406 528.226562 523.410156 526.933594 523.472656 C 525.636719 523.539062 524.339844 523.570312 523.039062 523.570312 C 521.742188 523.570312 520.445312 523.539062 519.148438 523.472656 C 517.855469 523.410156 516.558594 523.316406 515.269531 523.1875 C 513.976562 523.0625 512.691406 522.902344 511.40625 522.710938 C 510.121094 522.519531 508.84375 522.300781 507.570312 522.046875 C 506.296875 521.792969 505.03125 521.507812 503.773438 521.191406 C 502.515625 520.878906 501.265625 520.53125 500.023438 520.15625 C 498.78125 519.777344 497.550781 519.371094 496.328125 518.933594 C 495.105469 518.496094 493.894531 518.03125 492.695312 517.535156 C 491.496094 517.035156 490.3125 516.511719 489.136719 515.957031 C 487.964844 515.402344 486.804688 514.816406 485.660156 514.207031 C 484.515625 513.59375 483.386719 512.957031 482.277344 512.289062 C 481.164062 511.621094 480.066406 510.925781 478.988281 510.207031 C 477.910156 509.484375 476.847656 508.738281 475.804688 507.964844 C 474.761719 507.191406 473.742188 506.394531 472.738281 505.570312 C 471.734375 504.746094 470.75 503.898438 469.789062 503.027344 C 468.828125 502.15625 467.890625 501.261719 466.972656 500.34375 C 466.054688 499.425781 465.160156 498.488281 464.289062 497.527344 C 463.417969 496.566406 462.570312 495.582031 461.746094 494.578125 C 460.921875 493.574219 460.125 492.554688 459.351562 491.511719 C 458.578125 490.46875 457.832031 489.40625 457.109375 488.328125 C 456.390625 487.25 455.695312 486.152344 455.027344 485.039062 C 454.359375 483.925781 453.722656 482.796875 453.109375 481.65625 C 452.496094 480.511719 451.914062 479.351562 451.359375 478.179688 C 450.804688 477.003906 450.277344 475.820312 449.78125 474.621094 C 449.285156 473.421875 448.820312 472.210938 448.382812 470.988281 C 447.945312 469.765625 447.539062 468.535156 447.160156 467.292969 C 446.785156 466.050781 446.4375 464.800781 446.121094 463.542969 C 445.808594 462.285156 445.523438 461.019531 445.269531 459.746094 C 445.015625 458.472656 444.796875 457.195312 444.605469 455.910156 C 444.414062 454.625 444.253906 453.339844 444.128906 452.046875 C 444 450.757812 443.90625 449.460938 443.84375 448.167969 C 443.777344 446.871094 443.746094 445.574219 443.746094 444.273438 C 443.746094 442.976562 443.777344 441.679688 443.84375 440.382812 C 443.90625 439.089844 444 437.792969 444.128906 436.503906 C 444.253906 435.210938 444.414062 433.925781 444.605469 432.640625 C 444.796875 431.355469 445.015625 430.078125 445.269531 428.804688 C 445.523438 427.53125 445.808594 426.265625 446.121094 425.007812 C 446.4375 423.75 446.785156 422.5 447.160156 421.257812 C 447.539062 420.015625 447.945312 418.785156 448.382812 417.5625 C 448.820312 416.339844 449.285156 415.128906 449.78125 413.929688 C 450.277344 412.730469 450.804688 411.546875 451.359375 410.371094 C 451.914062 409.199219 452.496094 408.039062 453.109375 406.894531 C 453.722656 405.75 454.359375 404.621094 455.027344 403.511719 C 455.695312 402.398438 456.390625 401.300781 457.109375 400.222656 C 457.832031 399.144531 458.578125 398.082031 459.351562 397.039062 C 460.125 395.996094 460.921875 394.976562 461.746094 393.972656 C 462.570312 392.96875 463.417969 391.984375 464.289062 391.023438 C 465.160156 390.0625 466.054688 389.125 466.972656 388.207031 C 467.890625 387.289062 468.828125 386.394531 469.789062 385.523438 C 470.75 384.652344 471.734375 383.804688 472.738281 382.980469 C 473.742188 382.15625 474.761719 381.359375 475.804688 380.585938 C 476.847656 379.8125 477.910156 379.066406 478.988281 378.34375 C 480.066406 377.625 481.164062 376.929688 482.277344 376.261719 C 483.386719 375.59375 484.515625 374.957031 485.660156 374.34375 C 486.804688 373.730469 487.964844 373.148438 489.136719 372.59375 C 490.3125 372.039062 491.496094 371.511719 492.695312 371.015625 C 493.894531 370.519531 495.105469 370.054688 496.328125 369.617188 C 497.550781 369.179688 498.78125 368.773438 500.023438 368.394531 C 501.265625 368.019531 502.515625 367.671875 503.773438 367.355469 C 505.03125 367.042969 506.296875 366.757812 507.570312 366.503906 C 508.84375 366.25 510.121094 366.03125 511.40625 365.839844 C 512.691406 365.648438 513.976562 365.488281 515.269531 365.363281 C 516.558594 365.234375 517.855469 365.140625 519.148438 365.078125 C 520.445312 365.011719 521.742188 364.980469 523.039062 364.980469 C 524.339844 364.980469 525.636719 365.011719 526.933594 365.078125 C 528.226562 365.140625 529.523438 365.234375 530.8125 365.363281 C 532.105469 365.488281 533.390625 365.648438 534.675781 365.839844 C 535.960938 366.03125 537.238281 366.25 538.511719 366.503906 C 539.785156 366.757812 541.050781 367.042969 542.308594 367.355469 C 543.566406 367.671875 544.816406 368.019531 546.058594 368.394531 C 547.300781 368.773438 548.53125 369.179688 549.753906 369.617188 C 550.976562 370.054688 552.1875 370.519531 553.386719 371.015625 C 554.585938 371.511719 555.769531 372.039062 556.945312 372.59375 C 558.117188 373.148438 559.277344 373.730469 560.421875 374.34375 C 561.566406 374.957031 562.691406 375.59375 563.804688 376.261719 C 564.917969 376.929688 566.015625 377.625 567.09375 378.34375 C 568.171875 379.066406 569.234375 379.8125 570.277344 380.585938 C 571.320312 381.359375 572.339844 382.15625 573.34375 382.980469 C 574.347656 383.804688 575.332031 384.652344 576.292969 385.523438 C 577.253906 386.394531 578.191406 387.289062 579.109375 388.207031 C 580.027344 389.125 580.921875 390.0625 581.792969 391.023438 C 582.664062 391.984375 583.511719 392.96875 584.335938 393.972656 C 585.160156 394.976562 585.957031 395.996094 586.730469 397.039062 C 587.503906 398.082031 588.25 399.144531 588.972656 400.222656 C 589.691406 401.300781 590.386719 402.398438 591.054688 403.511719 C 591.722656 404.621094 592.359375 405.75 592.972656 406.894531 C 593.585938 408.039062 594.167969 409.199219 594.722656 410.371094 C 595.277344 411.546875 595.800781 412.730469 596.300781 413.929688 C 596.796875 415.128906 597.261719 416.339844 597.699219 417.5625 C 598.136719 418.785156 598.542969 420.015625 598.921875 421.257812 C 599.296875 422.5 599.644531 423.75 599.957031 425.007812 C 600.273438 426.265625 600.558594 427.53125 600.8125 428.804688 C 601.066406 430.078125 601.285156 431.355469 601.476562 432.640625 C 601.667969 433.925781 601.828125 435.210938 601.953125 436.503906 C 602.082031 437.792969 602.175781 439.089844 602.238281 440.382812 C 602.304688 441.679688 602.335938 442.976562 602.335938 444.273438 Z M 602.335938 444.273438 " fill-opacity="1" fill-rule="nonzero"/><path fill="#ffaa00" d="M 523.039062 364.980469 C 482.863281 364.980469 450.089844 394.585938 443.746094 432.644531 L 571.675781 507.710938 C 590.707031 492.910156 602.335938 470.707031 602.335938 444.273438 C 603.390625 399.871094 567.445312 364.980469 523.039062 364.980469 Z M 523.039062 364.980469 " fill-opacity="1" fill-rule="nonzero"/><path fill="#f7b208" d="M 523.039062 364.980469 C 567.445312 364.980469 602.335938 400.925781 602.335938 444.273438 C 602.335938 487.621094 566.386719 523.570312 523.039062 523.570312 " fill-opacity="1" fill-rule="nonzero"/><path fill="#f20a41" d="M 665.769531 444.273438 C 665.769531 445.574219 665.738281 446.871094 665.675781 448.167969 C 665.613281 449.460938 665.515625 450.757812 665.390625 452.046875 C 665.261719 453.339844 665.101562 454.625 664.914062 455.910156 C 664.722656 457.195312 664.5 458.472656 664.246094 459.746094 C 663.992188 461.019531 663.710938 462.285156 663.394531 463.542969 C 663.078125 464.800781 662.734375 466.050781 662.355469 467.292969 C 661.980469 468.535156 661.574219 469.765625 661.136719 470.988281 C 660.699219 472.210938 660.230469 473.421875 659.734375 474.621094 C 659.238281 475.820312 658.710938 477.003906 658.15625 478.179688 C 657.601562 479.351562 657.019531 480.511719 656.40625 481.65625 C 655.796875 482.796875 655.15625 483.925781 654.488281 485.039062 C 653.820312 486.152344 653.128906 487.25 652.40625 488.328125 C 651.6875 489.40625 650.9375 490.46875 650.167969 491.511719 C 649.394531 492.554688 648.59375 493.574219 647.773438 494.578125 C 646.949219 495.582031 646.101562 496.566406 645.230469 497.527344 C 644.359375 498.488281 643.464844 499.425781 642.546875 500.34375 C 641.628906 501.261719 640.6875 502.15625 639.726562 503.027344 C 638.765625 503.898438 637.785156 504.746094 636.78125 505.570312 C 635.777344 506.394531 634.753906 507.191406 633.710938 507.964844 C 632.667969 508.738281 631.609375 509.484375 630.53125 510.207031 C 629.449219 510.925781 628.355469 511.621094 627.242188 512.289062 C 626.128906 512.957031 625 513.59375 623.855469 514.207031 C 622.710938 514.816406 621.550781 515.402344 620.378906 515.957031 C 619.207031 516.511719 618.019531 517.035156 616.820312 517.535156 C 615.621094 518.03125 614.410156 518.496094 613.191406 518.933594 C 611.96875 519.371094 610.734375 519.777344 609.496094 520.15625 C 608.253906 520.53125 607.003906 520.878906 605.742188 521.191406 C 604.484375 521.507812 603.21875 521.792969 601.945312 522.046875 C 600.671875 522.300781 599.394531 522.519531 598.109375 522.710938 C 596.828125 522.902344 595.539062 523.0625 594.25 523.1875 C 592.957031 523.316406 591.664062 523.410156 590.367188 523.472656 C 589.070312 523.539062 587.773438 523.570312 586.476562 523.570312 C 585.179688 523.570312 583.882812 523.539062 582.585938 523.472656 C 581.289062 523.410156 579.996094 523.316406 578.703125 523.1875 C 577.414062 523.0625 576.125 522.902344 574.839844 522.710938 C 573.558594 522.519531 572.28125 522.300781 571.007812 522.046875 C 569.734375 521.792969 568.46875 521.507812 567.210938 521.191406 C 565.949219 520.878906 564.699219 520.53125 563.457031 520.15625 C 562.214844 519.777344 560.984375 519.371094 559.761719 518.933594 C 558.539062 518.496094 557.332031 518.03125 556.132812 517.535156 C 554.933594 517.035156 553.746094 516.511719 552.574219 515.957031 C 551.402344 515.402344 550.242188 514.816406 549.097656 514.207031 C 547.953125 513.59375 546.824219 512.957031 545.710938 512.289062 C 544.597656 511.621094 543.5 510.925781 542.421875 510.207031 C 541.34375 509.484375 540.28125 508.738281 539.242188 507.964844 C 538.199219 507.191406 537.175781 506.394531 536.171875 505.570312 C 535.167969 504.746094 534.1875 503.898438 533.226562 503.027344 C 532.265625 502.15625 531.324219 501.261719 530.40625 500.34375 C 529.488281 499.425781 528.59375 498.488281 527.722656 497.527344 C 526.851562 496.566406 526.003906 495.582031 525.179688 494.578125 C 524.359375 493.574219 523.558594 492.554688 522.785156 491.511719 C 522.011719 490.46875 521.265625 489.40625 520.546875 488.328125 C 519.824219 487.25 519.128906 486.152344 518.464844 485.039062 C 517.796875 483.925781 517.15625 482.796875 516.546875 481.65625 C 515.933594 480.511719 515.351562 479.351562 514.796875 478.179688 C 514.242188 477.003906 513.714844 475.820312 513.21875 474.621094 C 512.722656 473.421875 512.253906 472.210938 511.816406 470.988281 C 511.378906 469.765625 510.972656 468.535156 510.597656 467.292969 C 510.21875 466.050781 509.875 464.800781 509.558594 463.542969 C 509.242188 462.285156 508.957031 461.019531 508.707031 459.746094 C 508.453125 458.472656 508.230469 457.195312 508.039062 455.910156 C 507.851562 454.625 507.691406 453.339844 507.5625 452.046875 C 507.4375 450.757812 507.339844 449.460938 507.277344 448.167969 C 507.214844 446.871094 507.183594 445.574219 507.183594 444.273438 C 507.183594 442.976562 507.214844 441.679688 507.277344 440.382812 C 507.339844 439.089844 507.4375 437.792969 507.5625 436.503906 C 507.691406 435.210938 507.851562 433.925781 508.039062 432.640625 C 508.230469 431.355469 508.453125 430.078125 508.707031 428.804688 C 508.957031 427.53125 509.242188 426.265625 509.558594 425.007812 C 509.875 423.75 510.21875 422.5 510.597656 421.257812 C 510.972656 420.015625 511.378906 418.785156 511.816406 417.5625 C 512.253906 416.339844 512.722656 415.128906 513.21875 413.929688 C 513.714844 412.730469 514.242188 411.546875 514.796875 410.371094 C 515.351562 409.199219 515.933594 408.039062 516.546875 406.894531 C 517.15625 405.75 517.796875 404.621094 518.464844 403.511719 C 519.128906 402.398438 519.824219 401.300781 520.546875 400.222656 C 521.265625 399.144531 522.011719 398.082031 522.785156 397.039062 C 523.558594 395.996094 524.359375 394.976562 525.179688 393.972656 C 526.003906 392.96875 526.851562 391.984375 527.722656 391.023438 C 528.59375 390.0625 529.488281 389.125 530.40625 388.207031 C 531.324219 387.289062 532.265625 386.394531 533.226562 385.523438 C 534.1875 384.652344 535.167969 383.804688 536.171875 382.980469 C 537.175781 382.15625 538.199219 381.359375 539.242188 380.585938 C 540.28125 379.8125 541.34375 379.066406 542.421875 378.34375 C 543.5 377.625 544.597656 376.929688 545.710938 376.261719 C 546.824219 375.59375 547.953125 374.957031 549.097656 374.34375 C 550.242188 373.730469 551.402344 373.148438 552.574219 372.59375 C 553.746094 372.039062 554.933594 371.511719 556.132812 371.015625 C 557.332031 370.519531 558.539062 370.054688 559.761719 369.617188 C 560.984375 369.179688 562.214844 368.773438 563.457031 368.394531 C 564.699219 368.019531 565.949219 367.671875 567.210938 367.355469 C 568.46875 367.042969 569.734375 366.757812 571.007812 366.503906 C 572.28125 366.25 573.558594 366.03125 574.839844 365.839844 C 576.125 365.648438 577.414062 365.488281 578.703125 365.363281 C 579.996094 365.234375 581.289062 365.140625 582.585938 365.078125 C 583.882812 365.011719 585.179688 364.980469 586.476562 364.980469 C 587.773438 364.980469 589.070312 365.011719 590.367188 365.078125 C 591.664062 365.140625 592.957031 365.234375 594.25 365.363281 C 595.539062 365.488281 596.828125 365.648438 598.109375 365.839844 C 599.394531 366.03125 600.671875 366.25 601.945312 366.503906 C 603.21875 366.757812 604.484375 367.042969 605.742188 367.355469 C 607.003906 367.671875 608.253906 368.019531 609.496094 368.394531 C 610.734375 368.773438 611.96875 369.179688 613.191406 369.617188 C 614.410156 370.054688 615.621094 370.519531 616.820312 371.015625 C 618.019531 371.511719 619.207031 372.039062 620.378906 372.59375 C 621.550781 373.148438 622.710938 373.730469 623.855469 374.34375 C 625 374.957031 626.128906 375.59375 627.242188 376.261719 C 628.355469 376.929688 629.449219 377.625 630.53125 378.34375 C 631.609375 379.066406 632.667969 379.8125 633.710938 380.585938 C 634.753906 381.359375 635.777344 382.15625 636.78125 382.980469 C 637.785156 383.804688 638.765625 384.652344 639.726562 385.523438 C 640.6875 386.394531 641.628906 387.289062 642.546875 388.207031 C 643.464844 389.125 644.359375 390.0625 645.230469 391.023438 C 646.101562 391.984375 646.949219 392.96875 647.773438 393.972656 C 648.59375 394.976562 649.394531 395.996094 650.167969 397.039062 C 650.9375 398.082031 651.6875 399.144531 652.40625 400.222656 C 653.128906 401.300781 653.820312 402.398438 654.488281 403.511719 C 655.15625 404.621094 655.796875 405.75 656.40625 406.894531 C 657.019531 408.039062 657.601562 409.199219 658.15625 410.371094 C 658.710938 411.546875 659.238281 412.730469 659.734375 413.929688 C 660.230469 415.128906 660.699219 416.339844 661.136719 417.5625 C 661.574219 418.785156 661.980469 420.015625 662.355469 421.257812 C 662.734375 422.5 663.078125 423.75 663.394531 425.007812 C 663.710938 426.265625 663.992188 427.53125 664.246094 428.804688 C 664.5 430.078125 664.722656 431.355469 664.914062 432.640625 C 665.101562 433.925781 665.261719 435.210938 665.390625 436.503906 C 665.515625 437.792969 665.613281 439.089844 665.675781 440.382812 C 665.738281 441.679688 665.769531 442.976562 665.769531 444.273438 Z M 665.769531 444.273438 " fill-opacity="1" fill-rule="nonzero"/><path fill="#f20a41" d="M 665.769531 444.273438 C 665.769531 445.574219 665.738281 446.871094 665.675781 448.167969 C 665.613281 449.460938 665.515625 450.757812 665.390625 452.046875 C 665.261719 453.339844 665.101562 454.625 664.914062 455.910156 C 664.722656 457.195312 664.5 458.472656 664.246094 459.746094 C 663.992188 461.019531 663.710938 462.285156 663.394531 463.542969 C 663.078125 464.800781 662.734375 466.050781 662.355469 467.292969 C 661.980469 468.535156 661.574219 469.765625 661.136719 470.988281 C 660.699219 472.210938 660.230469 473.421875 659.734375 474.621094 C 659.238281 475.820312 658.710938 477.003906 658.15625 478.179688 C 657.601562 479.351562 657.019531 480.511719 656.40625 481.65625 C 655.796875 482.796875 655.15625 483.925781 654.488281 485.039062 C 653.820312 486.152344 653.128906 487.25 652.40625 488.328125 C 651.6875 489.40625 650.9375 490.46875 650.167969 491.511719 C 649.394531 492.554688 648.59375 493.574219 647.773438 494.578125 C 646.949219 495.582031 646.101562 496.566406 645.230469 497.527344 C 644.359375 498.488281 643.464844 499.425781 642.546875 500.34375 C 641.628906 501.261719 640.6875 502.15625 639.726562 503.027344 C 638.765625 503.898438 637.785156 504.746094 636.78125 505.570312 C 635.777344 506.394531 634.753906 507.191406 633.710938 507.964844 C 632.667969 508.738281 631.609375 509.484375 630.53125 510.207031 C 629.449219 510.925781 628.355469 511.621094 627.242188 512.289062 C 626.128906 512.957031 625 513.59375 623.855469 514.207031 C 622.710938 514.816406 621.550781 515.402344 620.378906 515.957031 C 619.207031 516.511719 618.019531 517.035156 616.820312 517.535156 C 615.621094 518.03125 614.410156 518.496094 613.191406 518.933594 C 611.96875 519.371094 610.734375 519.777344 609.496094 520.15625 C 608.253906 520.53125 607.003906 520.878906 605.742188 521.191406 C 604.484375 521.507812 603.21875 521.792969 601.945312 522.046875 C 600.671875 522.300781 599.394531 522.519531 598.109375 522.710938 C 596.828125 522.902344 595.539062 523.0625 594.25 523.1875 C 592.957031 523.316406 591.664062 523.410156 590.367188 523.472656 C 589.070312 523.539062 587.773438 523.570312 586.476562 523.570312 C 585.179688 523.570312 583.882812 523.539062 582.585938 523.472656 C 581.289062 523.410156 579.996094 523.316406 578.703125 523.1875 C 577.414062 523.0625 576.125 522.902344 574.839844 522.710938 C 573.558594 522.519531 572.28125 522.300781 571.007812 522.046875 C 569.734375 521.792969 568.46875 521.507812 567.210938 521.191406 C 565.949219 520.878906 564.699219 520.53125 563.457031 520.15625 C 562.214844 519.777344 560.984375 519.371094 559.761719 518.933594 C 558.539062 518.496094 557.332031 518.03125 556.132812 517.535156 C 554.933594 517.035156 553.746094 516.511719 552.574219 515.957031 C 551.402344 515.402344 550.242188 514.816406 549.097656 514.207031 C 547.953125 513.59375 546.824219 512.957031 545.710938 512.289062 C 544.597656 511.621094 543.5 510.925781 542.421875 510.207031 C 541.34375 509.484375 540.28125 508.738281 539.242188 507.964844 C 538.199219 507.191406 537.175781 506.394531 536.171875 505.570312 C 535.167969 504.746094 534.1875 503.898438 533.226562 503.027344 C 532.265625 502.15625 531.324219 501.261719 530.40625 500.34375 C 529.488281 499.425781 528.59375 498.488281 527.722656 497.527344 C 526.851562 496.566406 526.003906 495.582031 525.179688 494.578125 C 524.359375 493.574219 523.558594 492.554688 522.785156 491.511719 C 522.011719 490.46875 521.265625 489.40625 520.546875 488.328125 C 519.824219 487.25 519.128906 486.152344 518.464844 485.039062 C 517.796875 483.925781 517.15625 482.796875 516.546875 481.65625 C 515.933594 480.511719 515.351562 479.351562 514.796875 478.179688 C 514.242188 477.003906 513.714844 475.820312 513.21875 474.621094 C 512.722656 473.421875 512.253906 472.210938 511.816406 470.988281 C 511.378906 469.765625 510.972656 468.535156 510.597656 467.292969 C 510.21875 466.050781 509.875 464.800781 509.558594 463.542969 C 509.242188 462.285156 508.957031 461.019531 508.707031 459.746094 C 508.453125 458.472656 508.230469 457.195312 508.039062 455.910156 C 507.851562 454.625 507.691406 453.339844 507.5625 452.046875 C 507.4375 450.757812 507.339844 449.460938 507.277344 448.167969 C 507.214844 446.871094 507.183594 445.574219 507.183594 444.273438 C 507.183594 442.976562 507.214844 441.679688 507.277344 440.382812 C 507.339844 439.089844 507.4375 437.792969 507.5625 436.503906 C 507.691406 435.210938 507.851562 433.925781 508.039062 432.640625 C 508.230469 431.355469 508.453125 430.078125 508.707031 428.804688 C 508.957031 427.53125 509.242188 426.265625 509.558594 425.007812 C 509.875 423.75 510.21875 422.5 510.597656 421.257812 C 510.972656 420.015625 511.378906 418.785156 511.816406 417.5625 C 512.253906 416.339844 512.722656 415.128906 513.21875 413.929688 C 513.714844 412.730469 514.242188 411.546875 514.796875 410.371094 C 515.351562 409.199219 515.933594 408.039062 516.546875 406.894531 C 517.15625 405.75 517.796875 404.621094 518.464844 403.511719 C 519.128906 402.398438 519.824219 401.300781 520.546875 400.222656 C 521.265625 399.144531 522.011719 398.082031 522.785156 397.039062 C 523.558594 395.996094 524.359375 394.976562 525.179688 393.972656 C 526.003906 392.96875 526.851562 391.984375 527.722656 391.023438 C 528.59375 390.0625 529.488281 389.125 530.40625 388.207031 C 531.324219 387.289062 532.265625 386.394531 533.226562 385.523438 C 534.1875 384.652344 535.167969 383.804688 536.171875 382.980469 C 537.175781 382.15625 538.199219 381.359375 539.242188 380.585938 C 540.28125 379.8125 541.34375 379.066406 542.421875 378.34375 C 543.5 377.625 544.597656 376.929688 545.710938 376.261719 C 546.824219 375.59375 547.953125 374.957031 549.097656 374.34375 C 550.242188 373.730469 551.402344 373.148438 552.574219 372.59375 C 553.746094 372.039062 554.933594 371.511719 556.132812 371.015625 C 557.332031 370.519531 558.539062 370.054688 559.761719 369.617188 C 560.984375 369.179688 562.214844 368.773438 563.457031 368.394531 C 564.699219 368.019531 565.949219 367.671875 567.210938 367.355469 C 568.46875 367.042969 569.734375 366.757812 571.007812 366.503906 C 572.28125 366.25 573.558594 366.03125 574.839844 365.839844 C 576.125 365.648438 577.414062 365.488281 578.703125 365.363281 C 579.996094 365.234375 581.289062 365.140625 582.585938 365.078125 C 583.882812 365.011719 585.179688 364.980469 586.476562 364.980469 C 587.773438 364.980469 589.070312 365.011719 590.367188 365.078125 C 591.664062 365.140625 592.957031 365.234375 594.25 365.363281 C 595.539062 365.488281 596.828125 365.648438 598.109375 365.839844 C 599.394531 366.03125 600.671875 366.25 601.945312 366.503906 C 603.21875 366.757812 604.484375 367.042969 605.742188 367.355469 C 607.003906 367.671875 608.253906 368.019531 609.496094 368.394531 C 610.734375 368.773438 611.96875 369.179688 613.191406 369.617188 C 614.410156 370.054688 615.621094 370.519531 616.820312 371.015625 C 618.019531 371.511719 619.207031 372.039062 620.378906 372.59375 C 621.550781 373.148438 622.710938 373.730469 623.855469 374.34375 C 625 374.957031 626.128906 375.59375 627.242188 376.261719 C 628.355469 376.929688 629.449219 377.625 630.53125 378.34375 C 631.609375 379.066406 632.667969 379.8125 633.710938 380.585938 C 634.753906 381.359375 635.777344 382.15625 636.78125 382.980469 C 637.785156 383.804688 638.765625 384.652344 639.726562 385.523438 C 640.6875 386.394531 641.628906 387.289062 642.546875 388.207031 C 643.464844 389.125 644.359375 390.0625 645.230469 391.023438 C 646.101562 391.984375 646.949219 392.96875 647.773438 393.972656 C 648.59375 394.976562 649.394531 395.996094 650.167969 397.039062 C 650.9375 398.082031 651.6875 399.144531 652.40625 400.222656 C 653.128906 401.300781 653.820312 402.398438 654.488281 403.511719 C 655.15625 404.621094 655.796875 405.75 656.40625 406.894531 C 657.019531 408.039062 657.601562 409.199219 658.15625 410.371094 C 658.710938 411.546875 659.238281 412.730469 659.734375 413.929688 C 660.230469 415.128906 660.699219 416.339844 661.136719 417.5625 C 661.574219 418.785156 661.980469 420.015625 662.355469 421.257812 C 662.734375 422.5 663.078125 423.75 663.394531 425.007812 C 663.710938 426.265625 663.992188 427.53125 664.246094 428.804688 C 664.5 430.078125 664.722656 431.355469 664.914062 432.640625 C 665.101562 433.925781 665.261719 435.210938 665.390625 436.503906 C 665.515625 437.792969 665.613281 439.089844 665.675781 440.382812 C 665.738281 441.679688 665.769531 442.976562 665.769531 444.273438 Z M 665.769531 444.273438 " fill-opacity="1" fill-rule="nonzero"/><path fill="#e00040" d="M 586.476562 524.625 C 542.070312 524.625 507.183594 488.679688 507.183594 445.332031 C 507.183594 401.984375 543.128906 366.039062 586.476562 366.039062 " fill-opacity="1" fill-rule="nonzero"/><path fill="#f97803" d="M 554.757812 371.324219 C 526.210938 384.011719 507.183594 411.5 507.183594 444.273438 C 507.183594 477.050781 527.269531 505.597656 554.757812 517.226562 C 583.304688 504.539062 602.335938 477.050781 602.335938 444.273438 C 602.335938 411.5 583.304688 382.953125 554.757812 371.324219 Z M 554.757812 371.324219 " fill-opacity="1" fill-rule="nonzero"/><path fill="#f76806" d="M 554.757812 517.226562 C 583.304688 504.539062 602.335938 477.050781 602.335938 444.273438 C 602.335938 411.5 582.246094 382.953125 554.757812 371.324219 " fill-opacity="1" fill-rule="nonzero"/></svg>