<svg xmlns="http://www.w3.org/2000/svg" xmlns:xlink="http://www.w3.org/1999/xlink" width="1000" zoomAndPan="magnify" viewBox="0 0 750 749.999995" height="1000" preserveAspectRatio="xMidYMid meet" version="1.0"><defs><clipPath id="b09da3d0bf"><path d="M 218 80.445312 L 626 80.445312 L 626 299 L 218 299 Z M 218 80.445312 " clip-rule="nonzero"/></clipPath></defs><g clip-path="url(#b09da3d0bf)"><path fill="#00e499" d="M 218.683594 285.773438 L 218.683594 93.003906 C 218.683594 86.105469 224.3125 80.480469 231.210938 80.480469 C 371.511719 80.480469 472.433594 80.480469 612.734375 80.480469 C 619.632812 80.480469 625.261719 86.105469 625.261719 93.003906 L 625.261719 285.777344 C 625.261719 292.671875 619.636719 298.296875 612.734375 298.296875 C 472.4375 298.296875 371.511719 298.296875 231.210938 298.296875 C 224.3125 298.296875 218.683594 292.671875 218.683594 285.773438 Z M 218.683594 285.773438 " fill-opacity="1" fill-rule="evenodd"/><path fill="#00cf8a" d="M 218.683594 285.773438 L 218.683594 282.035156 L 597.007812 282.035156 C 603.90625 282.039062 609.53125 276.414062 609.53125 269.515625 L 609.53125 80.480469 L 612.734375 80.480469 C 619.632812 80.480469 625.261719 86.105469 625.261719 93.003906 L 625.261719 285.777344 C 625.261719 292.671875 619.636719 298.296875 612.734375 298.296875 C 472.4375 298.296875 371.511719 298.296875 231.210938 298.296875 C 224.3125 298.296875 218.683594 292.671875 218.683594 285.773438 Z M 218.683594 285.773438 " fill-opacity="1" fill-rule="evenodd"/></g><path fill="#eceff1" d="M 559.800781 257.378906 C 559.800781 241.839844 572.109375 229.246094 587.289062 229.246094 L 587.289062 149.53125 C 572.109375 149.53125 559.800781 136.9375 559.800781 121.398438 C 451.332031 121.398438 392.613281 121.398438 284.144531 121.398438 C 284.144531 136.9375 271.835938 149.53125 256.65625 149.53125 L 256.65625 229.246094 C 271.835938 229.246094 284.144531 241.839844 284.144531 257.378906 C 392.613281 257.378906 451.332031 257.378906 559.800781 257.378906 Z M 559.800781 257.378906 " fill-opacity="1" fill-rule="evenodd"/><path fill="#d1d1d6" d="M 559.800781 257.378906 C 559.800781 252.878906 560.835938 248.628906 562.667969 244.855469 L 296.667969 244.855469 C 296.667969 229.320312 284.359375 216.726562 269.179688 216.726562 L 269.179688 146.449219 C 265.421875 148.421875 261.164062 149.535156 256.65625 149.535156 L 256.65625 229.246094 C 271.835938 229.246094 284.144531 241.839844 284.144531 257.378906 C 392.613281 257.378906 451.332031 257.378906 559.800781 257.378906 Z M 559.800781 257.378906 " fill-opacity="1" fill-rule="evenodd"/><path fill="#00e499" d="M 364.089844 179.375 C 369.621094 179.375 374.109375 183.859375 374.109375 189.390625 C 374.109375 194.921875 369.621094 199.40625 364.089844 199.40625 L 325.128906 199.40625 C 319.597656 199.40625 315.109375 194.921875 315.109375 189.390625 C 315.109375 183.859375 319.597656 179.375 325.128906 179.375 Z M 449.707031 166.4375 C 451.84375 171.535156 449.445312 177.40625 444.34375 179.542969 C 439.242188 181.683594 433.375 179.285156 431.234375 174.183594 C 429.996094 171.238281 427.652344 169.539062 425.082031 168.886719 C 423.277344 168.429688 421.410156 168.398438 419.691406 168.746094 C 418.085938 169.066406 416.636719 169.699219 415.539062 170.589844 C 414.488281 171.441406 413.824219 172.660156 413.894531 174.148438 C 413.949219 175.273438 414.597656 176.085938 415.503906 176.675781 C 417.570312 178.023438 420.648438 178.8125 423.636719 179.300781 C 429.011719 180.183594 434.917969 181.679688 439.972656 184.730469 C 446.199219 188.488281 450.894531 194.164062 451.957031 202.914062 C 452.03125 203.527344 452.082031 204.324219 452.105469 205.296875 C 452.300781 213.457031 448.601562 219.519531 443.039062 223.738281 C 439.792969 226.199219 435.941406 227.921875 431.992188 228.976562 L 431.992188 229.132812 C 431.992188 234.664062 427.507812 239.148438 421.976562 239.148438 C 416.441406 239.148438 411.957031 234.664062 411.957031 229.132812 L 411.957031 228.765625 C 408.976562 227.875 406.148438 226.578125 403.597656 224.882812 C 398.105469 221.226562 393.898438 215.824219 392.113281 208.667969 C 390.796875 203.3125 394.074219 197.898438 399.433594 196.578125 C 404.792969 195.261719 410.207031 198.535156 411.527344 203.894531 C 411.996094 205.773438 413.136719 207.21875 414.632812 208.214844 C 416.796875 209.652344 419.636719 210.339844 422.558594 210.269531 C 422.976562 210.261719 423.601562 210.207031 424.4375 210.105469 C 426.957031 209.800781 429.390625 209.0625 430.984375 207.851562 C 431.691406 207.316406 432.164062 206.621094 432.144531 205.765625 C 432.144531 205.730469 432.121094 205.640625 432.078125 205.265625 C 431.890625 203.726562 430.929688 202.644531 429.640625 201.867188 C 427.183594 200.382812 423.71875 199.5625 420.425781 199.019531 C 415.175781 198.160156 409.433594 196.5625 404.621094 193.421875 C 398.644531 189.523438 394.355469 183.738281 393.933594 175.085938 C 393.523438 166.589844 397.175781 159.78125 402.9375 155.097656 C 405.570312 152.957031 408.648438 151.308594 411.953125 150.203125 L 411.953125 149.644531 C 411.953125 144.113281 416.441406 139.628906 421.972656 139.628906 C 427.503906 139.628906 431.992188 144.113281 431.992188 149.644531 L 431.992188 150.078125 C 439.449219 152.515625 446.082031 157.808594 449.707031 166.4375 Z M 518.8125 179.375 C 524.34375 179.375 528.832031 183.859375 528.832031 189.390625 C 528.832031 194.921875 524.347656 199.40625 518.8125 199.40625 L 479.851562 199.40625 C 474.320312 199.40625 469.832031 194.921875 469.832031 189.390625 C 469.832031 183.859375 474.320312 179.375 479.851562 179.375 Z M 518.8125 179.375 " fill-opacity="1" fill-rule="evenodd"/><path fill="#6cf5c2" d="M 143.539062 360.898438 L 143.539062 168.125 C 143.539062 161.226562 149.167969 155.601562 156.0625 155.605469 C 296.367188 155.605469 397.289062 155.605469 537.589844 155.605469 C 544.488281 155.601562 550.117188 161.226562 550.117188 168.125 L 550.117188 360.898438 C 550.117188 367.792969 544.488281 373.417969 537.589844 373.417969 C 397.289062 373.417969 296.367188 373.417969 156.0625 373.417969 C 149.167969 373.417969 143.539062 367.792969 143.539062 360.898438 Z M 143.539062 360.898438 " fill-opacity="1" fill-rule="evenodd"/><path fill="#00e499" d="M 143.539062 360.898438 L 143.539062 357.160156 L 521.863281 357.160156 C 528.761719 357.160156 534.386719 351.535156 534.386719 344.640625 L 534.386719 155.605469 L 537.589844 155.605469 C 544.488281 155.601562 550.117188 161.226562 550.117188 168.125 L 550.117188 360.898438 C 550.117188 367.792969 544.488281 373.417969 537.589844 373.417969 C 397.289062 373.417969 296.367188 373.417969 156.0625 373.417969 C 149.167969 373.417969 143.539062 367.792969 143.539062 360.898438 Z M 143.539062 360.898438 " fill-opacity="1" fill-rule="evenodd"/><path fill="#eceff1" d="M 484.65625 332.5 C 484.65625 316.960938 496.964844 304.367188 512.144531 304.367188 L 512.144531 224.65625 C 496.964844 224.65625 484.65625 212.058594 484.65625 196.519531 C 376.1875 196.519531 317.46875 196.519531 209 196.519531 C 209 212.058594 196.691406 224.65625 181.507812 224.65625 L 181.507812 304.367188 C 196.691406 304.367188 209 316.960938 209 332.5 C 317.46875 332.5 376.1875 332.5 484.65625 332.5 Z M 484.65625 332.5 " fill-opacity="1" fill-rule="evenodd"/><path fill="#d1d1d6" d="M 484.65625 332.5 C 484.65625 328 485.691406 323.75 487.523438 319.980469 L 221.523438 319.980469 C 221.523438 304.441406 209.214844 291.847656 194.035156 291.847656 L 194.035156 221.570312 C 190.277344 223.542969 186.019531 224.65625 181.507812 224.65625 L 181.507812 304.367188 C 196.691406 304.367188 209 316.960938 209 332.5 C 317.46875 332.5 376.1875 332.5 484.65625 332.5 Z M 484.65625 332.5 " fill-opacity="1" fill-rule="evenodd"/><path fill="#6cf5c2" d="M 288.945312 254.496094 C 294.476562 254.496094 298.964844 258.980469 298.964844 264.511719 C 298.964844 270.042969 294.476562 274.527344 288.945312 274.527344 L 249.984375 274.527344 C 244.453125 274.527344 239.964844 270.042969 239.964844 264.511719 C 239.964844 258.980469 244.453125 254.496094 249.984375 254.496094 Z M 374.558594 241.558594 C 376.699219 246.660156 374.296875 252.527344 369.199219 254.667969 C 364.097656 256.804688 358.226562 254.40625 356.085938 249.304688 C 354.847656 246.359375 352.507812 244.660156 349.933594 244.007812 C 348.132812 243.554688 346.265625 243.519531 344.542969 243.867188 C 342.941406 244.1875 341.492188 244.820312 340.394531 245.710938 C 339.34375 246.566406 338.675781 247.78125 338.75 249.269531 C 338.800781 250.394531 339.453125 251.207031 340.355469 251.796875 C 342.421875 253.148438 345.503906 253.933594 348.488281 254.425781 C 353.867188 255.308594 359.769531 256.800781 364.828125 259.855469 C 371.050781 263.613281 375.75 269.285156 376.8125 278.039062 C 376.886719 278.648438 376.933594 279.445312 376.957031 280.417969 C 377.152344 288.578125 373.453125 294.640625 367.894531 298.859375 C 364.648438 301.320312 360.792969 303.042969 356.847656 304.097656 L 356.847656 304.253906 C 356.847656 309.785156 352.359375 314.269531 346.828125 314.269531 C 341.296875 314.269531 336.808594 309.785156 336.808594 304.253906 L 336.808594 303.886719 C 333.832031 302.992188 331 301.699219 328.453125 300.003906 C 322.960938 296.347656 318.75 290.945312 316.96875 283.789062 C 315.648438 278.433594 318.925781 273.019531 324.289062 271.699219 C 329.648438 270.382812 335.0625 273.65625 336.378906 279.015625 C 336.847656 280.894531 337.988281 282.339844 339.488281 283.335938 C 341.652344 284.773438 344.492188 285.460938 347.414062 285.390625 C 347.832031 285.382812 348.457031 285.328125 349.289062 285.226562 C 351.8125 284.921875 354.246094 284.183594 355.839844 282.972656 C 356.546875 282.4375 357.019531 281.742188 357 280.886719 C 357 280.851562 356.976562 280.761719 356.933594 280.386719 C 356.746094 278.847656 355.785156 277.765625 354.496094 276.988281 C 352.039062 275.503906 348.574219 274.683594 345.28125 274.140625 C 340.03125 273.28125 334.289062 271.683594 329.476562 268.542969 C 323.5 264.644531 319.210938 258.859375 318.789062 250.207031 C 318.375 241.710938 322.03125 234.902344 327.792969 230.21875 C 330.425781 228.078125 333.503906 226.429688 336.808594 225.324219 L 336.808594 224.765625 C 336.808594 219.234375 341.296875 214.75 346.828125 214.75 C 352.359375 214.75 356.847656 219.234375 356.847656 224.765625 L 356.847656 225.199219 C 364.304688 227.640625 370.933594 232.929688 374.558594 241.558594 Z M 443.667969 254.496094 C 449.199219 254.496094 453.6875 258.980469 453.6875 264.511719 C 453.6875 270.042969 449.199219 274.53125 443.667969 274.53125 L 404.707031 274.53125 C 399.175781 274.53125 394.6875 270.042969 394.6875 264.511719 C 394.6875 258.980469 399.171875 254.496094 404.707031 254.496094 Z M 443.667969 254.496094 " fill-opacity="1" fill-rule="evenodd"/><path fill="#f6dccd" d="M 428.382812 605.074219 L 454.542969 506.882812 C 459.453125 488.453125 466.527344 471.796875 483.515625 463.132812 C 502.457031 453.46875 535.773438 440.078125 563.890625 420.5625 C 575.597656 414.589844 589.960938 417.929688 596.53125 429.304688 C 603.105469 440.6875 600.148438 452.898438 587.789062 461.941406 L 597.445312 454.953125 C 608.515625 446.9375 615.96875 436.875 619.460938 423.664062 L 644.425781 329.074219 C 663.835938 255.546875 712.304688 290.355469 706.367188 315.3125 L 664.671875 490.585938 C 660.835938 506.703125 651.351562 519.054688 636.996094 527.339844 L 537.203125 584.9375 L 524.882812 630.898438 C 522.511719 639.738281 513.371094 645.015625 504.53125 642.644531 L 440.136719 625.394531 C 431.304688 623.027344 426.03125 613.90625 428.382812 605.074219 Z M 428.382812 605.074219 " fill-opacity="1" fill-rule="evenodd"/><path fill="#f1cbbc" d="M 598.835938 434.445312 C 602.007812 444.261719 598.300781 454.246094 587.789062 461.941406 C 571.484375 471.421875 555.113281 480.800781 538.78125 490.230469 C 534.40625 492.753906 528.8125 491.253906 526.285156 486.882812 C 523.761719 482.507812 525.257812 476.914062 529.632812 474.390625 Z M 598.835938 434.445312 " fill-opacity="1" fill-rule="evenodd"/><path fill="#f1cbbc" d="M 428.382812 605.074219 L 454.542969 506.882812 C 459.453125 488.453125 466.527344 471.792969 483.515625 463.128906 C 493.648438 457.960938 507.898438 451.722656 523.261719 444.050781 L 472.34375 634.023438 L 440.136719 625.394531 C 431.304688 623.027344 426.03125 613.90625 428.382812 605.074219 Z M 428.382812 605.074219 " fill-opacity="1" fill-rule="evenodd"/><path fill="#d1d1d6" d="M 414.960938 579.257812 L 551.429688 617.070312 C 558.027344 618.898438 561.929688 625.792969 560.101562 632.390625 L 552.820312 658.652344 C 550.988281 665.25 544.09375 669.148438 537.496094 667.324219 L 401.023438 629.507812 C 394.425781 627.679688 390.523438 620.785156 392.351562 614.1875 L 399.636719 587.925781 C 401.464844 581.328125 408.359375 577.429688 414.960938 579.257812 Z M 414.960938 579.257812 " fill-opacity="1" fill-rule="evenodd"/><path fill="#b1b1b5" d="M 500.777344 613.183594 L 524.929688 619.875 L 548.816406 626.492188 C 555.402344 628.316406 559.300781 635.183594 557.5 641.769531 L 560.101562 632.386719 C 561.929688 625.792969 558.027344 618.898438 551.429688 617.070312 L 527.460938 610.429688 L 479.339844 597.09375 L 431.160156 583.746094 L 414.957031 579.253906 C 409.242188 577.671875 403.304688 580.386719 400.628906 585.429688 L 428.679688 593.203125 L 476.804688 606.539062 L 500.769531 613.179688 Z M 500.777344 613.183594 " fill-opacity="1" fill-rule="evenodd"/><path fill="#685e68" d="M 416.707031 603.546875 C 413.914062 607.296875 414.6875 612.605469 418.441406 615.398438 C 422.191406 618.191406 427.5 617.414062 430.296875 613.664062 C 433.089844 609.914062 432.3125 604.609375 428.5625 601.816406 C 424.808594 599.019531 419.503906 599.796875 416.707031 603.546875 Z M 416.707031 603.546875 " fill-opacity="1" fill-rule="evenodd"/><path fill="#f6dccd" d="M 321.28125 605.074219 L 295.121094 506.882812 C 290.210938 488.453125 283.136719 471.796875 266.144531 463.132812 C 247.207031 453.46875 213.886719 440.078125 185.773438 420.5625 C 174.066406 414.589844 159.699219 417.929688 153.128906 429.304688 C 146.558594 440.6875 149.515625 452.898438 161.875 461.941406 L 152.214844 454.953125 C 141.148438 446.9375 133.691406 436.875 130.203125 423.664062 L 105.238281 329.074219 C 85.828125 255.546875 37.355469 290.355469 43.296875 315.3125 L 84.988281 490.585938 C 88.824219 506.703125 98.3125 519.054688 112.667969 527.339844 L 212.460938 584.9375 L 224.777344 630.898438 C 227.148438 639.738281 236.289062 645.015625 245.128906 642.644531 L 309.523438 625.394531 C 318.355469 623.027344 323.632812 613.90625 321.28125 605.074219 Z M 321.28125 605.074219 " fill-opacity="1" fill-rule="evenodd"/><path fill="#f1cbbc" d="M 150.824219 434.445312 C 147.652344 444.261719 151.363281 454.246094 161.875 461.941406 C 178.175781 471.421875 194.546875 480.800781 210.882812 490.230469 C 215.257812 492.753906 220.851562 491.253906 223.378906 486.882812 C 225.902344 482.507812 224.402344 476.914062 220.03125 474.390625 Z M 150.824219 434.445312 " fill-opacity="1" fill-rule="evenodd"/><path fill="#f1cbbc" d="M 321.28125 605.074219 L 295.121094 506.882812 C 290.210938 488.453125 283.136719 471.792969 266.148438 463.128906 C 256.015625 457.960938 241.765625 451.722656 226.402344 444.050781 L 277.316406 634.023438 L 309.527344 625.394531 C 318.355469 623.027344 323.632812 613.90625 321.28125 605.074219 Z M 321.28125 605.074219 " fill-opacity="1" fill-rule="evenodd"/><path fill="#d1d1d6" d="M 334.703125 579.257812 L 198.234375 617.070312 C 191.636719 618.898438 187.734375 625.792969 189.5625 632.390625 L 196.84375 658.652344 C 198.671875 665.25 205.566406 669.148438 212.164062 667.324219 L 348.636719 629.507812 C 355.234375 627.679688 359.136719 620.785156 357.308594 614.1875 L 350.027344 587.925781 C 348.199219 581.328125 341.300781 577.429688 334.703125 579.257812 Z M 334.703125 579.257812 " fill-opacity="1" fill-rule="evenodd"/><path fill="#b1b1b5" d="M 248.886719 613.183594 L 224.730469 619.875 L 200.847656 626.492188 C 194.261719 628.316406 190.359375 635.183594 192.164062 641.769531 L 189.5625 632.386719 C 187.734375 625.792969 191.636719 618.898438 198.234375 617.070312 L 222.199219 610.429688 L 270.324219 597.09375 L 318.503906 583.746094 L 334.703125 579.253906 C 340.421875 577.671875 346.359375 580.386719 349.035156 585.429688 L 320.984375 593.203125 L 272.859375 606.539062 L 248.894531 613.179688 Z M 248.886719 613.183594 " fill-opacity="1" fill-rule="evenodd"/><path fill="#685e68" d="M 332.953125 603.546875 C 335.75 607.296875 334.972656 612.605469 331.222656 615.398438 C 327.46875 618.191406 322.160156 617.414062 319.367188 613.664062 C 316.574219 609.914062 317.347656 604.609375 321.101562 601.816406 C 324.851562 599.019531 330.160156 599.796875 332.953125 603.546875 Z M 332.953125 603.546875 " fill-opacity="1" fill-rule="evenodd"/></svg>